<svg width="28" height="28" viewBox="0 0 28 28" fill="none" xmlns="http://www.w3.org/2000/svg">
<path d="M2.33545 14.0023C2.33611 16.7805 3.32767 19.4674 5.1319 21.58C6.93614 23.6926 9.43475 25.0924 12.1786 25.5278V17.374H9.21878V14.0023H12.1821V11.4357C12.1167 10.8349 12.1843 10.2272 12.3802 9.65552C12.5762 9.08388 12.8955 8.56239 13.3157 8.12808C13.7359 7.69378 14.2465 7.35732 14.8113 7.14259C15.3762 6.92787 15.9814 6.84015 16.5839 6.88566C17.4589 6.89966 18.3339 6.97783 19.1973 7.119V9.98783H17.7226C17.472 9.955 17.2172 9.97892 16.977 10.0578C16.7369 10.1367 16.5175 10.2685 16.3352 10.4436C16.1528 10.6187 16.0122 10.8325 15.9236 11.0692C15.835 11.3059 15.8007 11.5596 15.8233 11.8113V14.0023H19.0561L18.5393 17.3752H15.8233V25.5278C18.0255 25.1798 20.0819 24.208 21.749 22.7276C23.416 21.2471 24.624 19.32 25.2298 17.1743C25.8356 15.0286 25.814 12.7543 25.1673 10.6206C24.5207 8.48683 23.2762 6.58307 21.5812 5.13466C19.8862 3.68626 17.8117 2.75388 15.6032 2.4479C13.3947 2.14193 11.1449 2.47517 9.11991 3.40818C7.09496 4.3412 5.37977 5.8349 4.17739 7.71245C2.97501 9.59001 2.3358 11.7728 2.33545 14.0023Z" fill="#512C0A"/>
</svg>
