<svg width="32" height="32" viewBox="0 0 32 32" fill="none" xmlns="http://www.w3.org/2000/svg">
<path d="M24.9733 7.21333L23.2666 8.54667L15.9999 13.9467L8.73327 8.49333L7.0266 7.16C6.62454 6.82739 6.13374 6.62005 5.61499 6.56367C5.09624 6.50728 4.57235 6.60433 4.10821 6.84278C3.64408 7.08123 3.2601 7.45062 3.00386 7.90517C2.74761 8.35972 2.63035 8.87946 2.6666 9.4V24.8533C2.6666 25.3343 2.85765 25.7955 3.19772 26.1356C3.53778 26.4756 3.99901 26.6667 4.47994 26.6667H8.73327V16.3733L15.9999 21.8267L23.2666 16.3733V26.6667H27.5199C28.0009 26.6667 28.4621 26.4756 28.8022 26.1356C29.1422 25.7955 29.3333 25.3343 29.3333 24.8533V9.4C29.3583 8.88395 29.2329 8.37174 28.9723 7.92563C28.7117 7.47952 28.3271 7.11873 27.8652 6.88711C27.4034 6.65549 26.8842 6.56301 26.3708 6.62093C25.8574 6.67884 25.3719 6.88465 24.9733 7.21333Z" fill="#4F2B0A"/>
</svg>
