<svg width="37" height="37" viewBox="0 0 37 37" fill="none" xmlns="http://www.w3.org/2000/svg">
<path d="M3.08643 18.5031C3.08729 22.1743 4.39757 25.7248 6.78174 28.5165C9.16592 31.3081 12.4676 33.1579 16.0935 33.7332V22.9585H12.1823V18.5031H16.0981V15.1114C16.0116 14.3176 16.101 13.5145 16.3599 12.7591C16.6188 12.0037 17.0408 11.3146 17.596 10.7407C18.1513 10.1668 18.826 9.72218 19.5724 9.43844C20.3188 9.1547 21.1186 9.03878 21.9148 9.09893C23.071 9.11743 24.2273 9.22072 25.3681 9.40726V13.1982H23.4195C23.0883 13.1548 22.7516 13.1864 22.4342 13.2907C22.1169 13.3949 21.827 13.5692 21.5861 13.8005C21.3451 14.0318 21.1592 14.3144 21.0421 14.6272C20.9251 14.94 20.8798 15.2752 20.9096 15.6078V18.5031H25.1816L24.4986 22.9601H20.9096V33.7332C23.8197 33.2733 26.5371 31.9892 28.74 30.0329C30.9429 28.0765 32.5392 25.53 33.3397 22.6946C34.1403 19.8593 34.1116 16.8539 33.2571 14.0343C32.4027 11.2148 30.7582 8.69907 28.5183 6.78511C26.2785 4.87115 23.5371 3.63907 20.6188 3.23474C17.7005 2.83042 14.7274 3.27078 12.0516 4.50369C9.37578 5.7366 7.10927 7.71042 5.52042 10.1915C3.93156 12.6725 3.08689 15.5569 3.08643 18.5031Z" fill="black"/>
</svg>
