<svg width="43" height="43" viewBox="0 0 43 43" fill="none" xmlns="http://www.w3.org/2000/svg">
<path d="M21.5 14.1542C20.0471 14.1542 18.6269 14.585 17.4189 15.3922C16.2109 16.1993 15.2693 17.3466 14.7133 18.6889C14.1573 20.0311 14.0119 21.5081 14.2953 22.9331C14.5788 24.3581 15.2784 25.667 16.3057 26.6943C17.333 27.7216 18.6419 28.4212 20.0669 28.7047C21.4919 28.9881 22.9689 28.8427 24.3111 28.2867C25.6534 27.7307 26.8007 26.7891 27.6078 25.5811C28.415 24.3731 28.8458 22.9529 28.8458 21.5C28.8482 20.5347 28.6598 19.5784 28.2915 18.6861C27.9232 17.7938 27.3822 16.983 26.6996 16.3004C26.017 15.6178 25.2062 15.0768 24.3139 14.7085C23.4216 14.3402 22.4653 14.1518 21.5 14.1542ZM21.5 26.2838C20.5539 26.2838 19.629 26.0032 18.8423 25.4775C18.0556 24.9519 17.4425 24.2048 17.0804 23.3307C16.7183 22.4565 16.6236 21.4947 16.8082 20.5667C16.9928 19.6388 17.4484 18.7864 18.1174 18.1174C18.7864 17.4484 19.6388 16.9928 20.5667 16.8082C21.4947 16.6236 22.4565 16.7183 23.3307 17.0804C24.2048 17.4425 24.9519 18.0556 25.4775 18.8423C26.0032 19.629 26.2838 20.5539 26.2838 21.5C26.2838 22.7687 25.7797 23.9855 24.8826 24.8826C23.9855 25.7797 22.7687 26.2838 21.5 26.2838ZM30.8704 13.8496C30.8704 14.2039 30.7653 14.5503 30.5685 14.845C30.3716 15.1396 30.0918 15.3693 29.7644 15.5049C29.437 15.6405 29.0768 15.676 28.7292 15.6068C28.3817 15.5377 28.0624 15.3671 27.8118 15.1165C27.5613 14.8659 27.3906 14.5467 27.3215 14.1991C27.2524 13.8516 27.2879 13.4913 27.4235 13.1639C27.5591 12.8366 27.7887 12.5567 28.0834 12.3599C28.378 12.163 28.7244 12.0579 29.0787 12.0579C29.5539 12.0579 30.0096 12.2467 30.3456 12.5827C30.6817 12.9187 30.8704 13.3744 30.8704 13.8496ZM35.7258 15.6412C35.7779 13.4139 34.9471 11.2563 33.4146 9.63917C31.8061 8.08702 29.6475 7.23647 27.4125 7.27417C25.0833 7.16667 17.9167 7.16667 15.5875 7.27417C13.3608 7.22595 11.2047 8.05623 9.58542 9.58542C8.05289 11.2026 7.22205 13.3601 7.27417 15.5875C7.16667 17.9167 7.16667 25.0833 7.27417 27.4125C7.22205 29.6399 8.05289 31.7974 9.58542 33.4146C11.2047 34.9438 13.3608 35.774 15.5875 35.7258C17.9525 35.8692 25.0475 35.8692 27.4125 35.7258C29.6399 35.7779 31.7974 34.9471 33.4146 33.4146C34.9471 31.7974 35.7779 29.6399 35.7258 27.4125C35.8333 25.0833 35.8333 17.9167 35.7258 15.5875V15.6412ZM32.68 29.9746C32.4367 30.5908 32.0695 31.1505 31.601 31.619C31.1326 32.0874 30.5729 32.4547 29.9567 32.6979C27.1753 33.2602 24.3318 33.453 21.5 33.2712C18.6741 33.4533 15.8365 33.2605 13.0613 32.6979C12.445 32.4547 11.8853 32.0874 11.4169 31.619C10.9484 31.1505 10.5812 30.5908 10.3379 29.9746C9.58542 28.0754 9.74667 23.5963 9.74667 21.5179C9.74667 19.4396 9.58542 14.9425 10.3379 13.0613C10.5743 12.4389 10.9389 11.8733 11.4081 11.4011C11.8773 10.9288 12.4405 10.5605 13.0613 10.32C15.8365 9.75738 18.6741 9.56459 21.5 9.74667C24.3318 9.5649 27.1753 9.75767 29.9567 10.32C30.5729 10.5633 31.1326 10.9305 31.601 11.399C32.0695 11.8674 32.4367 12.4271 32.68 13.0433C33.4325 14.9425 33.2533 19.4217 33.2533 21.5C33.2533 23.5783 33.4325 28.0754 32.68 29.9567V29.9746Z" fill="black"/>
</svg>
