<svg width="43" height="43" viewBox="0 0 43 43" fill="none" xmlns="http://www.w3.org/2000/svg">
<path d="M33.5579 9.69292L31.2646 11.4846L21.5 18.7408L11.7354 11.4129L9.44206 9.62126C8.90179 9.17432 8.24227 8.89571 7.5452 8.81994C6.84813 8.74417 6.14415 8.87457 5.52047 9.19499C4.89679 9.51541 4.38083 10.0118 4.03649 10.6226C3.69216 11.2334 3.53459 11.9318 3.58331 12.6313V33.3967C3.58331 34.0429 3.84003 34.6627 4.29699 35.1197C4.75395 35.5766 5.37373 35.8333 6.01997 35.8333H11.7354V22.0017L21.5 29.3296L31.2646 22.0017V35.8333H36.98C37.6262 35.8333 38.246 35.5766 38.703 35.1197C39.1599 34.6627 39.4166 34.0429 39.4166 33.3967V12.6313C39.4503 11.9378 39.2818 11.2495 38.9316 10.6501C38.5813 10.0506 38.0645 9.5658 37.444 9.25456C36.8234 8.94332 36.1257 8.81906 35.4359 8.89688C34.746 8.9747 34.0935 9.25126 33.5579 9.69292Z" fill="black"/>
</svg>
