<svg width="27" height="27" viewBox="0 0 27 27" fill="none" xmlns="http://www.w3.org/2000/svg">
<path d="M26.5984 5.55412C25.6591 5.97037 24.65 6.25162 23.5891 6.37875C24.6837 5.72376 25.5026 4.69289 25.8931 3.4785C24.8647 4.08936 23.7391 4.51934 22.5653 4.74975C21.776 3.90697 20.7305 3.34836 19.5912 3.16065C18.4519 2.97294 17.2824 3.16664 16.2645 3.71165C15.2465 4.25667 14.4369 5.12253 13.9615 6.17479C13.486 7.22705 13.3713 8.40684 13.6351 9.53099C11.5512 9.42637 9.51266 8.88474 7.65168 7.94126C5.7907 6.99779 4.1489 5.67355 2.83282 4.0545C2.38282 4.83075 2.12407 5.73075 2.12407 6.68925C2.12357 7.55211 2.33606 8.40177 2.74269 9.16282C3.14931 9.92387 3.73751 10.5728 4.45507 11.052C3.62288 11.0255 2.80906 10.8007 2.08132 10.3961V10.4636C2.08124 11.6738 2.49986 12.8468 3.26616 13.7835C4.03245 14.7202 5.09922 15.3629 6.28545 15.6026C5.51346 15.8116 4.70408 15.8423 3.91845 15.6926C4.25313 16.7339 4.90507 17.6445 5.78299 18.2969C6.66091 18.9493 7.72086 19.3108 8.81445 19.3309C6.95801 20.7882 4.66532 21.5787 2.3052 21.5752C1.88713 21.5754 1.46941 21.5509 1.0542 21.5021C3.44986 23.0424 6.23858 23.8599 9.0867 23.8567C18.7279 23.8567 23.9986 15.8715 23.9986 8.94599C23.9986 8.72099 23.993 8.49374 23.9828 8.26874C25.008 7.52734 25.893 6.60925 26.5962 5.5575L26.5984 5.55412Z" fill="#4F2B0A"/>
</svg>
